<?xml version="1.0" encoding="UTF-8"?>
<svg version="1.1" xmlns="http://www.w3.org/2000/svg" width="227" height="340">
<path d="M0 0 C1.83276741 -0.01441132 1.83276741 -0.01441132 3.70256042 -0.02911377 C5.04820571 -0.03396303 6.39385316 -0.03824154 7.73950195 -0.04199219 C9.1137543 -0.04774331 10.48800662 -0.05350104 11.86225891 -0.05926514 C14.74997329 -0.06978782 17.63765975 -0.07562125 20.52539062 -0.07910156 C24.216396 -0.08456987 27.90702939 -0.10855625 31.59791851 -0.13707352 C34.44018099 -0.15575414 37.28235517 -0.1609085 40.12467384 -0.16243744 C41.48457674 -0.16545548 42.8444784 -0.17345533 44.20432091 -0.18662262 C46.11400361 -0.20378424 48.02383955 -0.19994351 49.93359375 -0.1953125 C51.01867722 -0.19895813 52.10376068 -0.20260376 53.22172546 -0.20635986 C58.89777616 0.47340804 63.08388094 3.43546223 67.2902832 7.16113281 C67.7852832 8.15113281 67.7852832 8.15113281 68.2902832 9.16113281 C71.99912354 7.47381424 74.61799281 5.22341961 77.60668945 2.50097656 C80.96171968 -0.16903589 84.21095972 0.03926806 88.32226562 0.04760742 C90.2098761 0.0477887 90.2098761 0.0477887 92.13562012 0.04797363 C93.47233123 0.05300911 94.80904186 0.05817568 96.14575195 0.06347656 C97.96943298 0.06498718 97.96943298 0.06498718 99.82995605 0.06652832 C104.37924134 0.07176731 108.9285132 0.08572854 113.4777832 0.09863281 C128.7299707 0.12957031 128.7299707 0.12957031 144.2902832 0.16113281 C144.2902832 22.60113281 144.2902832 45.04113281 144.2902832 68.16113281 C152.5402832 68.16113281 160.7902832 68.16113281 169.2902832 68.16113281 C171.07854345 69.94939306 170.43210457 72.60792523 170.44418335 75.0244751 C170.45278381 76.29969528 170.46138428 77.57491547 170.47024536 78.88877869 C170.47468142 80.31582601 170.4789797 81.74287376 170.4831543 83.16992188 C170.49105306 84.66307263 170.49932187 86.15622147 170.50793457 87.64936829 C170.53422929 92.57514609 170.54949157 97.50093259 170.5637207 102.42675781 C170.5690815 104.12667598 170.57445901 105.82659409 170.57985306 107.52651215 C170.60151226 114.61222726 170.62023761 121.69794007 170.63147545 128.78367996 C170.64763075 138.90229234 170.68056595 149.02051544 170.7378763 159.1389811 C170.77685488 166.26793268 170.79614207 173.39678151 170.80139601 180.52583671 C170.80501794 184.77273445 170.81669217 189.01921783 170.84949875 193.26599884 C171.10887987 228.6103389 165.62251345 258.04920622 140.1652832 284.37988281 C122.52165204 301.87928811 98.03311906 312.39459593 73.25610352 312.62988281 C72.00925781 312.61957031 70.76241211 312.60925781 69.4777832 312.59863281 C68.16261719 312.58960938 66.84745117 312.58058594 65.49243164 312.57128906 C38.83750899 312.09754075 15.04143114 301.19401753 -3.7097168 282.16113281 C-22.88252179 260.93522679 -32.0705683 236.2029603 -31.95263672 207.79150391 C-31.95371188 206.27428099 -31.95565402 204.75705848 -31.95838928 203.23983765 C-31.96319935 199.15373401 -31.95563339 195.06774108 -31.94543624 190.98165083 C-31.93660574 186.69802459 -31.93841406 182.41440131 -31.938797 178.13076782 C-31.93786348 170.95060385 -31.92921639 163.77048242 -31.91552734 156.59033203 C-31.89974523 148.281431 -31.89453146 139.97257629 -31.8952629 131.66366136 C-31.89587206 123.66367282 -31.8907807 115.66369937 -31.88247108 107.66371536 C-31.87893513 104.25941475 -31.87710742 100.85511947 -31.87657738 97.45081711 C-31.8755766 93.45347256 -31.86950198 89.45616723 -31.85941124 85.4588356 C-31.85647954 83.9885965 -31.85526222 82.51835288 -31.85583878 81.04811096 C-31.85632606 79.05000392 -31.85008072 77.05189853 -31.84342957 75.05380249 C-31.84175372 73.93336233 -31.84007788 72.81292217 -31.83835125 71.65852928 C-31.7097168 69.16113281 -31.7097168 69.16113281 -30.7097168 68.16113281 C-28.92900434 68.07387058 -27.1448854 68.0541424 -25.36206055 68.06347656 C-24.2824707 68.06669922 -23.20288086 68.06992188 -22.09057617 68.07324219 C-20.38611328 68.08581055 -20.38611328 68.08581055 -18.6472168 68.09863281 C-16.93695312 68.10540039 -16.93695312 68.10540039 -15.19213867 68.11230469 C-12.36461328 68.12413534 -9.5371904 68.14061872 -6.7097168 68.16113281 C-6.71193741 67.32397232 -6.71415802 66.48681183 -6.71644592 65.62428284 C-6.73644712 57.75145867 -6.75169005 49.87864298 -6.76152897 42.00579929 C-6.76675721 37.95787539 -6.77385378 33.90997241 -6.78515625 29.86206055 C-6.79598723 25.9587731 -6.80199408 22.05550582 -6.80459404 18.15220451 C-6.80644791 16.65979634 -6.8100678 15.16738933 -6.81544685 13.6749897 C-6.8226601 11.59165142 -6.82370762 9.5083975 -6.82324219 7.42504883 C-6.8254628 6.23702164 -6.82768341 5.04899445 -6.82997131 3.82496643 C-6.61257868 -0.99063488 -4.27534151 0.02700203 0 0 Z " fill="#03539C" transform="translate(43.709716796875,13.8388671875)"/>
<path d="M0 0 C1.64397766 0.00018127 1.64397766 0.00018127 3.32116699 0.00036621 C4.47177612 0.00548218 5.62238525 0.01059814 6.80786133 0.01586914 C7.86638306 0.01687622 8.92490479 0.0178833 10.01550293 0.0189209 C13.97364382 0.0241571 17.93176927 0.03811834 21.88989258 0.05102539 C30.73801758 0.07165039 39.58614258 0.09227539 48.70239258 0.11352539 C48.70239258 20.90352539 48.70239258 41.69352539 48.70239258 63.11352539 C21.20239258 63.36352539 21.20239258 63.36352539 12.5637207 63.41137695 C10.28700758 63.44076001 8.01031245 63.47158817 5.73364258 63.50415039 C3.98132324 63.50584229 3.98132324 63.50584229 2.19360352 63.50756836 C-5.18806969 63.636355 -11.46669059 64.27626842 -16.88342285 69.70196533 C-18.08862222 71.11798357 -19.20392225 72.60970828 -20.29760742 74.11352539 C-23.29760742 73.11352539 -23.29760742 73.11352539 -25.17260742 70.73852539 C-28.26924819 66.91326326 -31.51882667 65.06310191 -36.29760742 64.11352539 C-38.12972243 64.00069129 -39.96518737 63.93766975 -41.80053711 63.90820312 C-43.45179596 63.87828529 -43.45179596 63.87828529 -45.13641357 63.84776306 C-46.31882629 63.83105057 -47.50123901 63.81433807 -48.71948242 63.79711914 C-49.9346051 63.77633804 -51.14972778 63.75555695 -52.40167236 63.73414612 C-56.28359315 63.66875711 -60.16558162 63.60981488 -64.04760742 63.55102539 C-66.67912484 63.50783007 -69.31063541 63.46421545 -71.94213867 63.42016602 C-78.39389002 63.31308656 -84.84570872 63.21130025 -91.29760742 63.11352539 C-91.32073506 55.17738752 -91.33852466 47.24126363 -91.34941959 39.30510044 C-91.3546475 35.62038041 -91.36174347 31.93568336 -91.37304688 28.25097656 C-91.38387904 24.69781708 -91.38988495 21.14467976 -91.39248466 17.59150505 C-91.39433832 16.23306873 -91.3979578 14.87463368 -91.40333748 13.51620674 C-91.41055217 11.61970316 -91.41101551 9.72317746 -91.41113281 7.82666016 C-91.41335342 6.74522232 -91.41557404 5.66378448 -91.41786194 4.54957581 C-91.29760742 2.11352539 -91.29760742 2.11352539 -90.29760742 1.11352539 C-88.64188605 1.00435147 -86.98153854 0.96445827 -85.32226562 0.95239258 C-84.2605867 0.94278503 -83.19890778 0.93317749 -82.10505676 0.92327881 C-80.94785629 0.91902893 -79.79065582 0.91477905 -78.59838867 0.91040039 C-76.82397652 0.90185028 -76.82397652 0.90185028 -75.01371765 0.89312744 C-72.50264383 0.88365789 -69.99155748 0.87713574 -67.48046875 0.87329102 C-63.64390179 0.86361066 -59.80787604 0.83261525 -55.97143555 0.80102539 C-53.53458978 0.79449318 -51.09774017 0.78924356 -48.66088867 0.78540039 C-46.9402697 0.76688019 -46.9402697 0.76688019 -45.18489075 0.74798584 C-38.67129447 0.7661288 -33.64945552 0.98460306 -28.65307617 5.64868164 C-25.40871853 9.89130317 -25.40871853 9.89130317 -24.29760742 12.11352539 C-21.97604145 12.52081767 -19.64072872 12.85791216 -17.29760742 13.11352539 C-17.2125293 12.36586914 -17.12745117 11.61821289 -17.03979492 10.84790039 C-16.1465788 7.55710415 -15.02187809 6.51530258 -12.42260742 4.36352539 C-11.37459961 3.47407227 -11.37459961 3.47407227 -10.30541992 2.56665039 C-6.90308835 0.10426256 -4.07029503 -0.00948787 0 0 Z " fill="#E8E9EA" transform="translate(134.297607421875,18.886474609375)"/>
<path d="M0 0 C23.76 0 47.52 0 72 0 C72.103125 8.6625 72.20625 17.325 72.3125 26.25 C72.35802002 28.95993164 72.40354004 31.66986328 72.45043945 34.46191406 C72.46506325 36.64647185 72.47779942 38.83104342 72.48828125 41.015625 C72.51386108 42.12019043 72.53944092 43.22475586 72.5657959 44.36279297 C72.57147956 54.66157926 69.39225725 64.10250976 62.86328125 72.18359375 C54.30541279 80.52616993 44.68913502 83.42649666 32.99389648 83.36352539 C27.1311923 83.21125615 22.88090054 82.20043575 18 79 C17.22011719 78.49082031 16.44023438 77.98164063 15.63671875 77.45703125 C7.09023455 71.34440671 2.67531722 63.58501458 0.37026978 53.34313965 C-1.10863737 43.98432562 -0.38497967 34.11786033 -0.25 24.6875 C-0.1675 16.540625 -0.085 8.39375 0 0 Z " fill="#E8634F" transform="translate(77,162)"/>
<path d="M0 0 C1.98 0 3.96 0 6 0 C6 3.96 6 7.92 6 12 C6.99 12 7.98 12 9 12 C9.433125 10.88625 9.433125 10.88625 9.875 9.75 C10.82302644 7.43260203 11.84845911 5.22082885 13 3 C14.32 3.33 15.64 3.66 17 4 C17 8.36008185 15.97525847 10.21408794 14 14 C14 14.66 14 15.32 14 16 C14.70125 15.71125 15.4025 15.4225 16.125 15.125 C19.05452503 13.97866412 22.00921653 12.97374346 25 12 C25.495 14.475 25.495 14.475 26 17 C19.25 21 19.25 21 17 21 C17.495 22.485 17.495 22.485 18 24 C21.63 24.33 25.26 24.66 29 25 C29 26.32 29 27.64 29 29 C25.37 29.33 21.74 29.66 18 30 C17.505 31.485 17.505 31.485 17 33 C17.721875 33.268125 18.44375 33.53625 19.1875 33.8125 C21.97590126 34.98982498 24.44095724 36.39145884 27 38 C26.34 39.32 25.68 40.64 25 42 C21.50196889 41.35221646 19.02054424 39.82822415 16 38 C15.34 38 14.68 38 14 38 C14.78318689 41.91593446 16.39179858 45.36406635 18 49 C17.34 49.66 16.68 50.32 16 51 C15.01 51 14.02 51 13 51 C11.71875 49.28515625 11.71875 49.28515625 10.5 47.0625 C8.65879256 43.54226276 8.65879256 43.54226276 5 42 C5 45.96 5 49.92 5 54 C3.35 54 1.7 54 0 54 C0 50.04 0 46.08 0 42 C-0.99 42 -1.98 42 -3 42 C-3.268125 42.7425 -3.53625 43.485 -3.8125 44.25 C-4.94229421 46.86636554 -6.20893202 48.80187111 -8 51 C-9.32 50.67 -10.64 50.34 -12 50 C-11.29355255 46.32647325 -9.66363793 43.32727586 -8 40 C-8 39.34 -8 38.68 -8 38 C-8.70125 38.28875 -9.4025 38.5775 -10.125 38.875 C-13.05452503 40.02133588 -16.00921653 41.02625654 -19 42 C-19.66 40.68 -20.32 39.36 -21 38 C-20.43410156 37.68546875 -19.86820312 37.3709375 -19.28515625 37.046875 C-18.55167969 36.61890625 -17.81820312 36.1909375 -17.0625 35.75 C-16.33160156 35.33234375 -15.60070312 34.9146875 -14.84765625 34.484375 C-12.5600885 32.95283195 -12.5600885 32.95283195 -12 29 C-15.63 29 -19.26 29 -23 29 C-23 27.68 -23 26.36 -23 25 C-19.37 25 -15.74 25 -12 25 C-12 23.68 -12 22.36 -12 21 C-12.7425 20.7525 -13.485 20.505 -14.25 20.25 C-17.20124062 18.90852699 -18.84814974 17.39094474 -21 15 C-20.34 14.01 -19.68 13.02 -19 12 C-17.948125 12.433125 -17.948125 12.433125 -16.875 12.875 C-13.94547497 14.02133588 -10.99078347 15.02625654 -8 16 C-9.2125738 12.27566618 -10.50859979 8.62197194 -12 5 C-10.68 4.34 -9.36 3.68 -8 3 C-7.67386719 3.56589844 -7.34773438 4.13179687 -7.01171875 4.71484375 C-6.35623047 5.81505859 -6.35623047 5.81505859 -5.6875 6.9375 C-5.25824219 7.66839844 -4.82898438 8.39929688 -4.38671875 9.15234375 C-3.04889746 11.29977412 -3.04889746 11.29977412 0 12 C0 8.04 0 4.08 0 0 Z " fill="#FEC703" transform="translate(110,181)"/>
<path d="M0 0 C1.32 0.66 2.64 1.32 4 2 C4 9.26 4 16.52 4 24 C1.009375 23.87625 -1.98125 23.7525 -5.0625 23.625 C-12.04747038 23.48489052 -17.69366294 24.0675253 -24.0625 27 C-30.1978939 29.79183688 -35.27894516 31.61764519 -42 30 C-45.6959747 28.14654523 -49.06610326 25.93389674 -52 23 C-52.08651611 21.58429877 -52.10704904 20.164405 -52.09765625 18.74609375 C-52.09443359 17.89208984 -52.09121094 17.03808594 -52.08789062 16.15820312 C-52.07951172 15.26037109 -52.07113281 14.36253906 -52.0625 13.4375 C-52.05798828 12.53580078 -52.05347656 11.63410156 -52.04882812 10.70507812 C-52.03700225 8.46998686 -52.0205222 6.23502563 -52 4 C-50.83597656 4.3196875 -49.67195312 4.639375 -48.47265625 4.96875 C-37.58798588 7.66659842 -28.46696518 6.73021121 -18.45947266 2.15234375 C-12.35071916 -0.54025561 -6.5727763 -0.98639067 0 0 Z " fill="#F5F6F7" transform="translate(205,163)"/>
<path d="M0 0 C0.66 0 1.32 0 2 0 C3.48828125 1.84375 3.48828125 1.84375 5.3125 4.5 C8.76259158 9.36998487 12.39483734 14.01776785 16.1875 18.625 C21.37542896 24.9400818 26.37814628 31.37196961 31.30615234 37.89135742 C35.44950823 43.347856 39.78729053 48.5967571 44.26953125 53.77734375 C46 56 46 56 46 58 C42.23310321 59.8834484 38.10145136 59.51966618 34 59 C31.05435517 57.91207518 28.32931757 56.63602728 25.54296875 55.19140625 C17.72677274 51.52944038 8.2344282 52.45746823 0 52 C0 34.84 0 17.68 0 0 Z " fill="#EDF0F2" transform="translate(17,88)"/>
<path d="M0 0 C2.53529434 0.92978812 4.92796885 1.88648858 7.375 3 C17.92007337 7.7487023 27.99236166 6.69013043 39 4 C40.22132181 21.13243098 40.22132181 21.13243098 37.32421875 25.5625 C31.10548518 30.11001998 24.51570686 30.77322087 17 30 C14.83331414 29.2076764 13.00444242 28.28256756 11.046875 27.0703125 C5.16310206 23.99368314 -0.95050135 23.62590728 -7.4375 23.375 C-8.26443359 23.33632812 -9.09136719 23.29765625 -9.94335938 23.2578125 C-11.96191073 23.16446908 -13.98092331 23.08119039 -16 23 C-16.0868329 19.541824 -16.14033282 16.08392656 -16.1875 12.625 C-16.21263672 11.64015625 -16.23777344 10.6553125 -16.26367188 9.640625 C-16.27333984 8.69960937 -16.28300781 7.75859375 -16.29296875 6.7890625 C-16.3086792 5.91975098 -16.32438965 5.05043945 -16.34057617 4.15478516 C-16.22818604 3.44370605 -16.1157959 2.73262695 -16 2 C-11.03111414 -1.31259057 -5.79742251 -0.72923554 0 0 Z " fill="#FAFCFD" transform="translate(33,163)"/>
<path d="M0 0 C2.60208435 0.82661595 5.07095211 1.88801657 7.5625 3 C15.15989084 6.35782315 21.78899903 7.66581179 29.859375 5.0859375 C31.57359648 4.39727627 33.27135764 3.66477668 34.94140625 2.875 C37 2 37 2 40 2 C40.36590746 3.72672034 40.71722195 5.45653655 41.0625 7.1875 C41.35833984 8.63189453 41.35833984 8.63189453 41.66015625 10.10546875 C42.10653259 13.90736378 41.84018714 16.61848423 39.8359375 19.9140625 C36.3070478 24.04682638 33.35545809 26.43029677 28 28 C22.09349203 28.39132144 18.13922081 27.52224614 12.75 25.0625 C3.37479312 21.11899672 -5.9496376 21.020595 -16 21 C-16.08687496 17.87517438 -16.14034568 14.75065754 -16.1875 11.625 C-16.21263672 10.73554688 -16.23777344 9.84609375 -16.26367188 8.9296875 C-16.27333984 8.07890625 -16.28300781 7.228125 -16.29296875 6.3515625 C-16.3086792 5.56604004 -16.32438965 4.78051758 -16.34057617 3.97119141 C-16.22818604 3.32069824 -16.1157959 2.67020508 -16 2 C-11.02996655 -1.31335563 -5.79837727 -0.72706925 0 0 Z " fill="#F9FBFC" transform="translate(33,209)"/>
<path d="M0 0 C1.13953125 -0.01417969 2.2790625 -0.02835938 3.453125 -0.04296875 C6.75 0.1875 6.75 0.1875 11.75 2.1875 C11.75 8.7875 11.75 15.3875 11.75 22.1875 C8.759375 22.06375 5.76875 21.94 2.6875 21.8125 C-4.31164698 21.67200305 -9.98608146 22.26347336 -16.375 25.1875 C-22.22244273 27.85175692 -26.84219492 29.64681177 -33.25 28.1875 C-38.02808697 26.39571738 -41.39596661 24.10253578 -44.875 20.375 C-46.6706115 16.21244608 -46.22574825 13.50740363 -45.25 9.1875 C-45.064375 8.1975 -44.87875 7.2075 -44.6875 6.1875 C-44.543125 5.5275 -44.39875 4.8675 -44.25 4.1875 C-43.239375 4.5175 -42.22875 4.8475 -41.1875 5.1875 C-28.99296326 8.13397537 -18.42765934 6.24563961 -7.25 1.1875 C-5.40174303 -0.66075697 -2.4758947 0.01387833 0 0 Z " fill="#E4E6E8" transform="translate(197.25,208.8125)"/>
<path d="M0 0 C0.33 0 0.66 0 1 0 C1 17.49 1 34.98 1 53 C-5.6 53 -12.2 53 -19 53 C-23.53669061 54.55202573 -26.98161285 55.73873048 -31 58 C-33.40545638 59.20272819 -34.94996953 59.10071472 -37.625 59.0625 C-38.85089844 59.04896484 -38.85089844 59.04896484 -40.1015625 59.03515625 C-40.72804687 59.02355469 -41.35453125 59.01195312 -42 59 C-40.43984354 54.21004596 -37.73173738 50.73816835 -34.6875 46.8125 C-33.59618198 45.38263442 -32.50639282 43.95160095 -31.41796875 42.51953125 C-30.85384277 41.77783691 -30.2897168 41.03614258 -29.70849609 40.27197266 C-26.91436756 36.55631673 -24.2084013 32.77835672 -21.5 29 C-15.8251879 21.09973785 -10.03414146 13.2925205 -4.15917969 5.54003906 C-3.16729681 4.22226375 -2.19488858 2.88986839 -1.2265625 1.5546875 C-0.82179687 1.04164062 -0.41703125 0.52859375 0 0 Z " fill="#F7F9FB" transform="translate(208,88)"/>
<path d="M0 0 C0.87398437 0.02707031 1.74796875 0.05414063 2.6484375 0.08203125 C3.62683594 0.13423828 3.62683594 0.13423828 4.625 0.1875 C4.11074517 5.77911595 2.63309931 9.96940978 0.0625 14.9375 C-0.29320068 15.63488281 -0.64890137 16.33226562 -1.01538086 17.05078125 C-5.90183011 26.39147895 -12.2692677 34.43781071 -19.375 42.1875 C-22.66675639 40.7976473 -24.30620906 39.33022075 -26.37109375 36.43359375 C-26.92394043 35.66893799 -27.47678711 34.90428223 -28.04638672 34.11645508 C-28.6292041 33.2942749 -29.21202148 32.47209473 -29.8125 31.625 C-31.0519715 29.9078327 -32.29289196 28.19171047 -33.53515625 26.4765625 C-34.48285889 25.16413574 -34.48285889 25.16413574 -35.44970703 23.82519531 C-38.48487863 19.66694095 -41.61208972 15.58099089 -44.75 11.5 C-45.31517334 10.76386475 -45.88034668 10.02772949 -46.46264648 9.26928711 C-47.76527842 7.57421515 -49.06989461 5.88066829 -50.375 4.1875 C-49.715 3.8575 -49.055 3.5275 -48.375 3.1875 C-46.74921821 3.77680888 -45.14834515 4.43540116 -43.5625 5.125 C-32.44757449 9.28403992 -22.19988487 7.44064136 -11.375 3.1875 C-9.86873047 2.383125 -9.86873047 2.383125 -8.33203125 1.5625 C-5.22993626 0.12004632 -3.37913397 -0.13699192 0 0 Z " fill="#D3D7D9" transform="translate(199.375,251.8125)"/>
<path d="M0 0 C6.44049843 0.47250866 11.60386024 2.23502612 17.47265625 4.8984375 C27.31371424 9.16962982 38.2324721 7.30638294 48.13671875 4.0546875 C49.48584843 3.42059655 50.82637933 2.76548482 52.13671875 2.0546875 C50.69191427 5.19021116 48.93690586 7.78248796 46.828125 10.51171875 C46.168125 11.37063721 45.508125 12.22955566 44.828125 13.11450195 C43.77431641 14.4770813 43.77431641 14.4770813 42.69921875 15.8671875 C36.05833854 24.51216908 29.5354442 33.22932677 23.13671875 42.0546875 C10.07180455 31.40576028 1.85288673 17.14514295 -2.86328125 1.0546875 C-1.86328125 0.0546875 -1.86328125 0.0546875 0 0 Z " fill="#F7F8FA" transform="translate(24.86328125,251.9453125)"/>
<path d="M0 0 C3 1 3 1 4.15800476 2.70800781 C4.70760612 3.81934082 4.70760612 3.81934082 5.26831055 4.953125 C5.68851974 5.79069336 6.10872894 6.62826172 6.54167175 7.49121094 C6.98553726 8.40161133 7.42940277 9.31201172 7.88671875 10.25 C8.34859085 11.17844727 8.81046295 12.10689453 9.28633118 13.06347656 C10.76277811 16.0377716 12.22497555 19.01883851 13.6875 22 C14.68467539 24.01084907 15.68271148 26.02127157 16.68164062 28.03125 C18.49934367 31.70069092 20.31680099 35.37021982 22.11987305 39.046875 C22.48388718 39.78776367 22.84790131 40.52865234 23.22294617 41.29199219 C24 43 24 43 24 44 C22.35 44 20.7 44 19 44 C18.74992187 43.07316406 18.49984375 42.14632812 18.2421875 41.19140625 C16.1167846 35.4092164 16.1167846 35.4092164 12 31 C4.9501679 28.97944432 -2.74794082 29.564895 -10 30 C-10.27585937 30.88945313 -10.55171875 31.77890625 -10.8359375 32.6953125 C-11.8792154 35.65710145 -13.06356463 38.16303331 -14.625 40.875 C-15.29402344 42.04675781 -15.29402344 42.04675781 -15.9765625 43.2421875 C-16.48316406 44.11230469 -16.48316406 44.11230469 -17 45 C-18.65 45 -20.3 45 -22 45 C-20.7548923 41.05113696 -19.31889015 37.39001408 -17.4609375 33.69140625 C-16.96625977 32.70333984 -16.47158203 31.71527344 -15.96191406 30.69726562 C-15.1763916 29.14555664 -15.1763916 29.14555664 -14.375 27.5625 C-13.84100586 26.50095703 -13.30701172 25.43941406 -12.75683594 24.34570312 C-8.62629376 16.16410005 -4.38504651 8.04785006 0 0 Z " fill="#0F5098" transform="translate(78,29)"/>
<path d="M0 0 C5.1586979 3.06760047 9.55865521 7.32440312 11.48046875 13.08984375 C11.98289831 19.21948438 11.59122219 22.22184626 7.48046875 27.08984375 C4.69761478 29.77824053 2.2094287 31.8468571 -1.51953125 33.08984375 C-1.84953125 34.40984375 -2.17953125 35.72984375 -2.51953125 37.08984375 C1.44046875 37.08984375 5.40046875 37.08984375 9.48046875 37.08984375 C9.48046875 38.40984375 9.48046875 39.72984375 9.48046875 41.08984375 C4.86046875 41.08984375 0.24046875 41.08984375 -4.51953125 41.08984375 C-4.51953125 36.79984375 -4.51953125 32.50984375 -4.51953125 28.08984375 C-2.50130208 27.17838542 -0.48307292 26.26692708 1.53515625 25.35546875 C3.86121095 23.84213196 4.51419297 22.66329252 5.48046875 20.08984375 C5.97877427 16.2695014 5.62555182 14.38581321 3.91796875 10.90234375 C0.6330979 7.11210815 -2.51104854 5.51624287 -7.50390625 4.80859375 C-12.43315376 4.57932642 -16.16331677 5.66041644 -20.51953125 8.08984375 C-23.65690649 10.98588243 -24.44489709 12.38081923 -24.89453125 16.65234375 C-24.53269606 20.73508503 -24.53269606 20.73508503 -22.51953125 24.08984375 C-20.24855867 25.60557372 -17.95201322 26.8285568 -15.51953125 28.08984375 C-15.51953125 32.37984375 -15.51953125 36.66984375 -15.51953125 41.08984375 C-19.80953125 41.08984375 -24.09953125 41.08984375 -28.51953125 41.08984375 C-28.51953125 39.76984375 -28.51953125 38.44984375 -28.51953125 37.08984375 C-24.55953125 37.08984375 -20.59953125 37.08984375 -16.51953125 37.08984375 C-16.51953125 35.76984375 -16.51953125 34.44984375 -16.51953125 33.08984375 C-17.40640625 32.86296875 -18.29328125 32.63609375 -19.20703125 32.40234375 C-23.86750589 30.55574059 -26.24129001 27.67662598 -29.33203125 23.83984375 C-31.04816245 19.86564518 -31.1908901 16.35184097 -30.51953125 12.08984375 C-24.71683882 0.4844589 -12.35322735 -4.46248368 0 0 Z " fill="#0B4E97" transform="translate(156.51953125,31.91015625)"/>
<path d="M0 0 C0.66 0 1.32 0 2 0 C2.50559908 1.43554025 3.0042749 2.8735202 3.5 4.3125 C3.7784375 5.11300781 4.056875 5.91351563 4.34375 6.73828125 C5 9 5 9 5 12 C8.96 12 12.92 12 17 12 C14.42215154 14.64752004 12.08351902 16.94432065 9 19 C9.60825035 23.34464536 10.26167392 27.67551867 11 32 C8.47146954 30.5250239 6.17487759 29.15848282 4 27.1875 C2.0274516 25.70297794 2.0274516 25.70297794 -0.375 26.5625 C-3.37976343 28.20796569 -6.19118469 30.04036141 -9 32 C-8.7834375 31.09507812 -8.7834375 31.09507812 -8.5625 30.171875 C-8.376875 29.37265625 -8.19125 28.5734375 -8 27.75 C-7.814375 26.96109375 -7.62875 26.1721875 -7.4375 25.359375 C-6.87845172 22.74443998 -6.87845172 22.74443998 -7 19 C-8.74364411 17.24533584 -8.74364411 17.24533584 -11 15.8125 C-12.34422229 14.89068089 -13.68066857 13.95710428 -15 13 C-15 12.67 -15 12.34 -15 12 C-11.04 12 -7.08 12 -3 12 C-2.01 8.04 -1.02 4.08 0 0 Z " fill="#F3C406" transform="translate(136,267)"/>
<path d="M0 0 C3.45854519 3.45854519 4 7.21904213 4 12 C7.96 12 11.92 12 16 12 C13.15063897 15.00765886 10.76488042 17.27845212 7 19 C7.22816406 19.60328125 7.45632812 20.2065625 7.69140625 20.828125 C8.12259766 22.02695312 8.12259766 22.02695312 8.5625 23.25 C8.85253906 24.03890625 9.14257812 24.8278125 9.44140625 25.640625 C10 28 10 28 9 32 C6.36 30.02 3.72 28.04 1 26 C-2.92413613 27.78275345 -2.92413613 27.78275345 -5.625 30.125 C-8 32 -8 32 -10 32 C-9.52140759 30.39566191 -9.04210442 28.79153584 -8.5625 27.1875 C-8.29566406 26.29417969 -8.02882813 25.40085937 -7.75390625 24.48046875 C-7.19612127 22.64526945 -6.60655425 20.81966274 -6 19 C-6.721875 18.773125 -7.44375 18.54625 -8.1875 18.3125 C-11.53209313 16.75168987 -13.51603959 14.6968713 -16 12 C-10.06 11.505 -10.06 11.505 -4 11 C-2.68 7.37 -1.36 3.74 0 0 Z " fill="#F4C405" transform="translate(88,267)"/>
<path d="M0 0 C2.64 0 5.28 0 8 0 C8.16866551 6.85203638 7.5453314 13.29609808 6.5 20.0625 C6.28537109 21.50399414 6.28537109 21.50399414 6.06640625 22.97460938 C5.71674414 25.3173455 5.3611856 27.65901777 5 30 C4.34 30 3.68 30 3 30 C2.49384729 26.12577792 1.99617279 22.25051183 1.5 18.375 C1.35691406 17.28058594 1.21382813 16.18617188 1.06640625 15.05859375 C0.93105469 13.99511719 0.79570313 12.93164062 0.65625 11.8359375 C0.53056641 10.86188965 0.40488281 9.8878418 0.27539062 8.88427734 C-0.00906019 5.90510895 -0.04655007 2.99084203 0 0 Z " fill="#EABF0B" transform="translate(97,117)"/>
<path d="M0 0 C2.64 0 5.28 0 8 0 C7.28948448 9.70414614 6.17837674 19.34417508 5 29 C4.34 29 3.68 29 3 29 C2.4935767 25.29251453 1.99600845 21.58389201 1.5 17.875 C1.35691406 16.82828125 1.21382813 15.7815625 1.06640625 14.703125 C0.41114246 9.77304508 -0.20707401 4.98703253 0 0 Z " fill="#F1C208" transform="translate(74,117)"/>
<path d="M0 0 C2.31 0 4.62 0 7 0 C6.53894171 10.13114935 5.7907672 20.00299865 4 30 C3.34 30 2.68 30 2 30 C1.65802981 26.87588408 1.32807747 23.75060292 1 20.625 C0.90460938 19.75488281 0.80921875 18.88476562 0.7109375 17.98828125 C0.08678885 11.96970497 -0.11723906 6.04920988 0 0 Z " fill="#F3C406" transform="translate(144,117)"/>
<path d="M0 0 C2.31 0 4.62 0 7 0 C7.16866551 6.85203638 6.5453314 13.29609808 5.5 20.0625 C5.28537109 21.50399414 5.28537109 21.50399414 5.06640625 22.97460938 C4.71674414 25.3173455 4.3611856 27.65901777 4 30 C3.34 30 2.68 30 2 30 C1.65802981 26.87588408 1.32807747 23.75060292 1 20.625 C0.90460938 19.75488281 0.80921875 18.88476562 0.7109375 17.98828125 C0.08678885 11.96970497 -0.11723906 6.04920988 0 0 Z " fill="#F4C405" transform="translate(121,117)"/>
<path d="M0 0 C2.31739296 3.08985727 3.99373333 5.71712111 5.6875 9.125 C6.34298828 10.42824219 6.34298828 10.42824219 7.01171875 11.7578125 C8 14 8 14 8 16 C2.72 16 -2.56 16 -8 16 C-5.36 10.72 -2.72 5.44 0 0 Z " fill="#D7D9DC" transform="translate(79,38)"/>
<path d="M0 0 C3.81538462 2.46153846 3.81538462 2.46153846 4.75 5.1875 C4.87375 6.0846875 4.87375 6.0846875 5 7 C5.66 6.67 6.32 6.34 7 6 C7.125 8.875 7.125 8.875 7 12 C5 14 5 14 1.5 14.25 C-2 14 -2 14 -4 12 C-3.67 11.01 -3.34 10.02 -3 9 C-2.67 9 -2.34 9 -2 9 C-2.04125 8.071875 -2.0825 7.14375 -2.125 6.1875 C-2 3 -2 3 0 0 Z " fill="#ECC00A" transform="translate(146,100)"/>
<path d="M0 0 C4.42857143 5.14285714 4.42857143 5.14285714 5 9 C5.33 8.34 5.66 7.68 6 7 C6.6875 9.3125 6.6875 9.3125 7 12 C5.9375 13.8125 5.9375 13.8125 4 15 C0.8125 15.1875 0.8125 15.1875 -2 15 C-2.66 13.68 -3.32 12.36 -4 11 C-3.01 11.33 -2.02 11.66 -1 12 C-1.66 11.01 -2.32 10.02 -3 9 C-2.68074747 5.16896958 -2.15546298 3.23319447 0 0 Z " fill="#EDC10A" transform="translate(77,99)"/>
<path d="M0 0 C4.42857143 5.14285714 4.42857143 5.14285714 5 9 C5 8.34 5 7.68 5 7 C5.66 7 6.32 7 7 7 C7.22223194 9.74086056 7.34781139 11.43963721 5.875 13.8125 C3.22464043 15.49106106 1.06753576 15.20450238 -2 15 C-2.66 13.68 -3.32 12.36 -4 11 C-3.01 11 -2.02 11 -1 11 C-1.33 10.67 -1.66 10.34 -2 10 C-2.35897436 3.53846154 -2.35897436 3.53846154 0 0 Z " fill="#EFC208" transform="translate(100,99)"/>
<path d="M0 0 C2.52588702 2.36292656 3.88820837 3.66462511 5 7 C5.66 7 6.32 7 7 7 C6.125 12.875 6.125 12.875 5 14 C2.66702567 14.04092937 0.33294775 14.04241723 -2 14 C-2.66 12.68 -3.32 11.36 -4 10 C-3.01 10 -2.02 10 -1 10 C-1.33 9.67 -1.66 9.34 -2 9 C-2.1875 5.5625 -2.1875 5.5625 -2 2 C-1.34 1.34 -0.68 0.68 0 0 Z " fill="#F1C307" transform="translate(123,100)"/>
<path d="M0 0 C0.33 0 0.66 0 1 0 C1 1.65 1 3.3 1 5 C4.96 5 8.92 5 13 5 C13 5.99 13 6.98 13 8 C8.71 8 4.42 8 0 8 C0 5.36 0 2.72 0 0 Z " fill="#014793" transform="translate(153,64)"/>
</svg>
